<?xml version="1.0" encoding="UTF-8" standalone="no"?>
<svg
   xmlns:dc="http://purl.org/dc/elements/1.1/"
   xmlns:cc="http://creativecommons.org/ns#"
   xmlns:rdf="http://www.w3.org/1999/02/22-rdf-syntax-ns#"
   xmlns:svg="http://www.w3.org/2000/svg"
   xmlns="http://www.w3.org/2000/svg"
   xmlns:sodipodi="http://sodipodi.sourceforge.net/DTD/sodipodi-0.dtd"
   xmlns:inkscape="http://www.inkscape.org/namespaces/inkscape"
   viewBox="0 0 120 35.96"
   version="1.1"
   id="svg35831"
   sodipodi:docname="Asset 14.svg"
   inkscape:version="0.92.4 (5da689c313, 2019-01-14)">
  <metadata
     id="metadata35835">
    <rdf:RDF>
      <cc:Work
         rdf:about="">
        <dc:format>image/svg+xml</dc:format>
        <dc:type
           rdf:resource="http://purl.org/dc/dcmitype/StillImage" />
        <dc:title>Asset 14</dc:title>
      </cc:Work>
    </rdf:RDF>
  </metadata>
  <sodipodi:namedview
     pagecolor="#ffffff"
     bordercolor="#666666"
     borderopacity="1"
     objecttolerance="10"
     gridtolerance="10"
     guidetolerance="10"
     inkscape:pageopacity="0"
     inkscape:pageshadow="2"
     inkscape:window-width="718"
     inkscape:window-height="480"
     id="namedview35833"
     showgrid="false"
     inkscape:zoom="4.65"
     inkscape:cx="60"
     inkscape:cy="17.98"
     inkscape:window-x="0"
     inkscape:window-y="0"
     inkscape:window-maximized="1"
     inkscape:current-layer="svg35831" />
  <defs
     id="defs35645">
    <style
       id="style35643">.cls-1,.cls-3{fill:#231f20;}.cls-2{fill:#c52127;}.cls-3,.cls-4{fill-rule:evenodd;}.cls-4,.cls-5{fill:#ec1c24;}.cls-5{stroke:#ec1c24;stroke-miterlimit:10;stroke-width:2.4px;}</style>
  </defs>
  <title
     id="title35647">Asset 14</title>
  <g
     id="Layer_2"
     data-name="Layer 2">
    <g
       id="Layer_1-2"
       data-name="Layer 1">
      <path
         class="cls-1"
         d="M117.65,17.63l-6.52,6.54,1.34,1.33L120,18,102,0l-3.2,3.15,13.94,13.91-3,3-4.25-4.25,1.94-1.92-1.39-1.39-3.21,3.22,5.64,5.61-1.07,1.08-5.64-5.62-3.34,3.32,7,7,2.22-2.16,1.38,1.39-2.21,2.18,1.36,1.35,3.33-3.33-2.73-2.72,6.62-6.31L101.56,3.55l1-1Zm-12.45,7L101,20.38l1.11-1.13,4.26,4.26Z"
         id="path35649" />
      <polygon
         class="cls-1"
         points="97.25 21.31 107.11 30.87 102.02 35.96 92.32 26.24 93.38 25.18 101.74 33.55 104.78 30.51 96.4 22.16 97.25 21.31"
         id="polygon35651" />
      <polygon
         class="cls-1"
         points="96.95 24.67 95.98 25.64 97.4 27.08 98.42 26.13 96.95 24.67"
         id="polygon35653" />
      <path
         class="cls-2"
         d="M106.1,12.46l-7-3.16,5.09,5.08-1.29,1.3L94.6,7.42,96,6l7.2,3.65L97.81,4.17l1-1,8.28,8.3Z"
         id="path35655" />
      <polygon
         class="cls-2"
         points="93.55 8.47 101.82 16.75 96.4 22.16 88.14 13.88 88.98 13.04 95.83 19.86 97.04 18.63 90.22 11.8 91.3 10.72 98.12 17.55 99.26 16.5 92.42 9.6 93.55 8.47"
         id="polygon35657" />
      <path
         class="cls-2"
         d="M89,20.8l-2.34-2.34,1.06-1.07,2.33,2.34Zm5.43,3.32,1-1-8.27-8.27L84,18l8.28,8.26,1.06-1.06-3.1-3.09,1-1.1Z"
         id="path35659" />
      <path
         class="cls-3"
         d="M65.28,8.49c-.21,0-.17-.22-.38-.2-.53.33-.26,1.43-.75,1.8a10.68,10.68,0,0,0-.53-1.34c-.38.16-.54-.12-.7-.31a1.34,1.34,0,0,1,.32-.51c.67.06.8.64,1,1.18.21-.29.2-1.42.75-1.44.3,0,.67.51.32.82"
         id="path35661" />
      <path
         class="cls-3"
         d="M79.39,7.67c-.35.56-1.12.6-1.72.82-1.76.66-3.74,1.36-5.42,2.11.1.19.52.06.43.42-.77.39-.73-.6-.27-.93a9.8,9.8,0,0,1,1.67-.62c.55-.19,1.11-.42,1.66-.62a30.46,30.46,0,0,1,3.65-1.18"
         id="path35663" />
      <path
         class="cls-3"
         d="M53.64,9.06c0,.25.34.22.37.46a.9.9,0,0,1-.27.52c-.26,0-.2-.22-.43-.21a6.63,6.63,0,0,1-3.54,2,5.83,5.83,0,0,1,1.61-1.08A9.23,9.23,0,0,0,53,9.68c-.18-.19-.45-.28-.59-.52-.12-.85.84-1.62,1.34-1.08,0,.35,0,.77-.1,1m-.76-.46c0,.25.21.32.43.36a1,1,0,0,0-.05-.47c-.19,0-.26.06-.38.11"
         id="path35665" />
      <path
         class="cls-3"
         d="M45,7.88h.16a13.37,13.37,0,0,1,.91,2.57c-.25.14-.36-.22-.54-.31.18,1.71.23,3.7.38,5.61.12,1.53.29,3.18-.54,4.22-.06-3.46-.36-7.72-.75-11.12a7.52,7.52,0,0,1,.38-1"
         id="path35667" />
      <path
         class="cls-3"
         d="M60.24,8.85c-.28,0-.21-.25-.43-.25-.5.31-.39,1.2-.65,1.75-.66,0-.48-.84-.8-1.19a.83.83,0,0,1-.7-.15,5.52,5.52,0,0,1-3.54,2.21c1.25-1,3.05-1.57,3.86-3,.66.15.88.73,1,1.38.2-.5.39-2,1.13-1.59a.7.7,0,0,1,.11.87"
         id="path35669" />
      <path
         class="cls-3"
         d="M43.12,8h.16a11.09,11.09,0,0,1,.91,2.63c-.3,0-.29-.28-.53-.31.08,2.74,1.18,6.94-1.18,8.23a3.5,3.5,0,0,1-2.79-1c-.77.31-1.52.64-2.26,1-.06,1.36-1,2.23-2,3.09a4.79,4.79,0,0,1-3.54,1.54c-1.09-.13-1.65-1-1.66-2.26-.3,0-.44.19-.75.2.55.79-.3,1.7-1,2,.18-.48.7-.64.81-1.19-.1-.27-.35-.05-.59-.05,0-.26.16-.36.21-.56-3,.71-4.89-1.45-4.24-4.22.07-.31.15-.78.49-.83-.65,1.81,0,3.52,1.66,3.92a6.37,6.37,0,0,0,3.54-.52c.17-.45.17-1.07.59-1.29a5.59,5.59,0,0,1-.21,1.08,3.37,3.37,0,0,0,1.5-.77c.36-.23,1.17-.6,1.23-1.08,0-.29-.33-.68-.53-1.13s-.29-.94-.43-1.23a1.46,1.46,0,0,1-.06-1.5A4.41,4.41,0,0,1,33.73,15c-.12.1-.4,0-.54,0,.25.71.72,1.14.81,1.9.25,2.2-2.05,3-3.38,3.81.58,2.32,3.39.88,4.56,0,.74-.56,1.58-1.17,1.72-2-.86-.07-1.65.24-2.15-.25-.78-.77.22-2.42,1.13-2.42s1,.89,1.5,1.39a11.22,11.22,0,0,0,1.5-.62,1.77,1.77,0,0,0-2.09-.57c-.25-2.17,5-2,5.79-.66A2.48,2.48,0,0,1,40.76,17a2,2,0,0,0,2.52-.1c0-2.27-.22-4.29-.32-6.58,0-.89-.32-1.59.16-2.27m-3.06,8.29c.23-.18.64-.18.75-.47a5.83,5.83,0,0,0-1.55-.1,2.33,2.33,0,0,0,.8.57m-4.88,1.13c.14.27.65.19,1.07.2,0-.4-1-.73-1.07-.2"
         id="path35671" />
      <path
         class="cls-3"
         d="M50.2,10.19a2.46,2.46,0,0,1-.7-.1,5.41,5.41,0,0,1-3.11,1.8c.65-.8,1.88-1,2.58-1.8-.79-.22-.37-1-.43-1.7.69-1,3,.93,1.66,1.8m-1.45-.92a.52.52,0,0,0,.59.15.88.88,0,0,0-.16-.51.44.44,0,0,0-.43.36m.86.25c.15.08.42.05.59.11a.67.67,0,0,0-.53-.57c0,.21-.06.29-.06.46"
         id="path35673" />
      <path
         class="cls-3"
         d="M42.1,8.19c.3.19-.14.5-.16.72L29.6,13.43a16.57,16.57,0,0,0-3.86,1.7c.21.26.67.28,1,.47,0,.23.06.56-.05.72-1.85.14-1.38-1.69-.48-2.32a9.92,9.92,0,0,1,1.93-.77c3.2-1.21,6.51-2.41,9.82-3.55,1.45-.51,2.91-1,4.13-1.49Z"
         id="path35675" />
      <path
         class="cls-3"
         d="M35,9c-.22,0-.18-.2-.37-.21-.48.37-.28,1.38-.7,1.8-.28-.37-.34-.94-.59-1.33-.29.25-.53-.09-.7-.26.1-.25.21-.49.49-.57a1.6,1.6,0,0,1,.8,1.19c.22-.35.29-1.52.91-1.39.17,0,.54.54.16.77"
         id="path35677" />
      <path
         class="cls-3"
         d="M6.85,9.42c-.19,0-.2-.22-.38-.26-.5.32-.35,1.27-.64,1.8.47.24,1.17.7.64,1.29a4.56,4.56,0,0,0-1.18.41,9.15,9.15,0,0,1,.43,2,2,2,0,0,1-.21,1.39c.23-1.56-1.33-3.68.32-4.27-.24-.33-.38.18-.64.15A1.1,1.1,0,0,1,5.56,11,4.85,4.85,0,0,0,5,9.73a.7.7,0,0,1-.76-.31,1.15,1.15,0,0,1,.38-.67,1.46,1.46,0,0,1,1,1.39c.4-.49.1-1.65,1.07-1.59.24.13.41.67.11.87"
         id="path35679" />
      <path
         class="cls-3"
         d="M28.69,9.42c-.21,0-.17-.25-.38-.26-.52.84-.45,1.85-1.07,2.52a5.94,5.94,0,0,1-2.74,1.39c.52-.64,2.15-1.18,2.79-1.85.36-.37,0-1-.27-1.54-.41.14-.51-.16-.75-.31.14-.21.2-.5.49-.57A1.54,1.54,0,0,1,27.61,10c.28-.4.22-1.46.81-1.44a.52.52,0,0,1,.27.87"
         id="path35681" />
      <path
         class="cls-3"
         d="M70.05,8.75c-.32.88-1.44,1-2.2,1.24-5.68,2.06-11.66,4.36-17.27,6.53a2.39,2.39,0,0,1,.27-.72C57,13.27,63.57,11.06,70,8.7c0,0,0,.05.1.05"
         id="path35683" />
      <path
         class="cls-3"
         d="M2.77,10.66c-.19,0-.41-.06-.59-.11A4.58,4.58,0,0,1,.79,11.74c.68.27,1.54-.12,2.2-.21a2.32,2.32,0,0,1-2.47.62c-.19-.93.91-1.05,1.29-1.6-.15-.16-.46-.18-.54-.41,0-.42.23-.56.11-1,.67-.83,2.35.74,1.39,1.5M1.54,9.93c.15,0,.37.19.48.11.11-.52-.44-.47-.48-.11m.75.16c.13,0,.47.16.48,0a.9.9,0,0,0-.43-.36c-.07.07,0,.22,0,.36"
         id="path35685" />
      <path
         class="cls-3"
         d="M30.78,9c.27.41-.57,1.31-.05,1.8.3,0,.21-.35.48-.36,0,.3-.17.92-.54.92-.87,0-.22-2,.11-2.36"
         id="path35687" />
      <path
         class="cls-3"
         d="M71.88,9.11H72c-.15.87-1.39,1-2.14,1.29-5.66,2.11-11.79,4.33-17.28,6.48.08-1,1.54-1.21,2.52-1.59,5.42-2.13,11.41-4.19,16.8-6.18"
         id="path35689" />
      <path
         class="cls-3"
         d="M19.14,10c-.23,0-.16-.2-.33-.21-.63.26-.21,1.54-.85,1.8a3.49,3.49,0,0,0-.49-1.28c-.36.14-.5-.15-.69-.31,0-.22.2-.32.26-.52.8,0,.83.69,1.08,1.19-.25-.58,1-2.2,1.18-1.09a.41.41,0,0,1-.16.42"
         id="path35691" />
      <path
         class="cls-3"
         d="M24.13,11.84c-.22.12-.35-.23-.54-.31,0,1.34.31,3.15.32,4.89,0,1.5-.49,3.18-1.55,3.4-1.25.25-1.78-.67-1.83-1.7a1.78,1.78,0,0,1-2.79.67,2.32,2.32,0,0,1-.37-.72c-.29.48-.41,1.11-1,1.23-1.18.25-1.71-.85-2.15-1.54-.66.17-1.45,1-.91,1.64.7-.09,1.06-.35,1.61-.15,1,.36.9,2.39.11,2.67s-1.63-.59-1.93-1.18c-.82.59-3.28,1.45-3.49-.26-.82.74-1.86,1.78-3.33,1.08-.57-.27-1-1.55-1.45-1.64s-1.24.68-1.44,1c-.51.85-.76,2.68-1.77,2.72S.14,22,.09,21.05c0-.43.14-.86.11-1.29A7.25,7.25,0,0,1,0,18.12a3.62,3.62,0,0,1,1-2.06C.83,16.87.06,18.2.73,19c.45,0,.44-.44.7-.62,0,.61-.16,1.43-.91,1.45-.07.78-.14,2.91,1,2.88.8,0,1.16-1.49,1.5-2.16S4.1,18.7,4.92,18.73s1,1.37,1.61,1.65a2.67,2.67,0,0,0,1.5.1c.89-.14,1.3-.87,2.15-1.44-.11.5-.17,1,.21,1.24a3.65,3.65,0,0,0,2.42-.57,2.66,2.66,0,0,1,1.66-3.19c.45.75,1.2,2.19,2.47,1.34.35-1.49-1-2.75-.22-4,1.05.71.47,3.92,1.83,4.22a1.46,1.46,0,0,0,1.71-1,13.47,13.47,0,0,0-.21-3.81c-.15-1.28-.5-2.18,0-3.14a2.83,2.83,0,0,1,.48,1.49c.09.5.22,1.07.27,1.65.14,1.72-.06,3.79.43,4.84a1.21,1.21,0,0,0,1.93.05,55.44,55.44,0,0,0-.32-7.36,1.94,1.94,0,0,1,.21-1.49h.16a14.42,14.42,0,0,1,.92,2.52M15,20.64c-.13-.22-.71-.28-1-.16.2.15.78.51,1,.16"
         id="path35693" />
      <path
         class="cls-3"
         d="M13.13,9.68a3.15,3.15,0,0,1-2.74,2c.2-.53,1.26-.67,1.72-1.13-.4-.23-1.25,0-1.83-.1-.07-1.21,2-1.16,2.85-.72"
         id="path35695" />
      <path
         class="cls-3"
         d="M75.85,9.63c.29.47-.55,1.32-.06,1.85.3,0,.3-.48.54-.36-.13.38-.17.88-.59.87-.89,0-.16-2,.11-2.36"
         id="path35697" />
      <path
         class="cls-3"
         d="M79.07,10.6c.45.3-.17,1.12.37,1.34,0,.24-.11.31-.16.47-.23,0-.22-.17-.43-.16A6,6,0,0,1,76,14c.18-.46.87-.66,1.34-.93a6.74,6.74,0,0,0,1.28-.92c-.81-.32-.4-1.52.49-1.5m-.59.72c.13.06.18.21.37.21.08-.16.07-.4-.16-.41,0,.09-.2.08-.21.2"
         id="path35699" />
      <path
         class="cls-3"
         d="M41.83,11.68c-.23.06-.15-.19-.32-.2-.62.28-.22,1.54-.86,1.8a3.87,3.87,0,0,0-.48-1.34.52.52,0,0,1-.7-.36c.15-.13.22-.34.38-.46.6.13.81.62.91,1.23.23-.26.25-1.44.75-1.49.28,0,.72.53.32.82"
         id="path35701" />
      <path
         class="cls-3"
         d="M16.35,11.12a2.77,2.77,0,0,1,1,.62,1.3,1.3,0,0,1-.43.87,2.29,2.29,0,0,1-.86-.51c-.21.14-.24.46-.43.61a6.36,6.36,0,0,1-1-.61c.05-.37.28-.56.38-.88.72.1,1,1,1.29-.1"
         id="path35703" />
      <path
         class="cls-3"
         d="M38.4,11.12c.22.43-.54,1.3-.11,1.8.34,0,.25-.35.54-.36-.09.41-.18.94-.59.93-.82,0-.17-2.05.16-2.37"
         id="path35705" />
      <path
         class="cls-3"
         d="M53.05,11.68c.26.39-.48,1.21-.06,1.75.25.15.21-.36.54-.3-.15.36-.16.88-.59.87-.85,0-.2-1.91.11-2.32"
         id="path35707" />
      <path
         class="cls-3"
         d="M8.84,11.84c.16.58-.58,1.39-.06,1.85.22,0,.21-.31.43-.36,0,.32-.15.94-.59.88-.76-.12-.1-2,.22-2.37"
         id="path35709" />
      <path
         class="cls-3"
         d="M36.36,13.33c-.25,0-.21-.21-.38-.26-.53.35-.31,1.42-.75,1.86a10.85,10.85,0,0,0-.59-1.34c-.72.27-.81-.77-.21-.88A1.84,1.84,0,0,1,35.29,14c.14-.34.24-1.44.75-1.44a.53.53,0,0,1,.32.82"
         id="path35711" />
      <path
         class="cls-3"
         d="M73.7,12.61a.89.89,0,0,1-.11.82.57.57,0,0,0-.91.11c.53.64,1.17,0,1.72-.26-.08,1.07-1.48,1.32-2.25,1.9-.09-.49.26-.56.43-.82a3.07,3.07,0,0,1-.43-.26,1.34,1.34,0,0,1,1.55-1.49"
         id="path35713" />
      <path
         class="cls-3"
         d="M2.5,13.74c-.15.13-.21-.17-.37-.2-.53.35-.29,1.44-.75,1.85-.23-.4-.31-.94-.54-1.34-.37.15-.54-.11-.7-.31a1,1,0,0,1,.33-.51c.67.06.77.66,1,1.18.2-.29.19-1.34.64-1.44s.79.48.43.77"
         id="path35715" />
      <path
         class="cls-3"
         d="M15.86,13c0,.53-.68.68-1.07.83C11.65,15.05,8,16.1,5.08,17.5c.24.27.84.23.7.72-.31.24-.79,0-1-.26.05-1.46,1.77-1.63,3.06-2.11L15.76,13c.06,0,.09,0,.1,0"
         id="path35717" />
      <path
         class="cls-3"
         d="M18.71,13.18c.3.45-.61,1.32-.06,1.85.29,0,.21-.35.49-.36-.07.4-.19.92-.54.93-.87,0-.22-2.09.11-2.42"
         id="path35719" />
      <path
         class="cls-3"
         d="M50,14a2.76,2.76,0,0,1-.48.88c-.38-.11-.57-.39-.91-.52-.17.15-.17.46-.38.57a5,5,0,0,1-1-.62,3.89,3.89,0,0,1,.48-.93c.38.1.57.38.92.52.21-.92,1-.31,1.39.1"
         id="path35721" />
      <path
         class="cls-3"
         d="M69.52,13.38c.33.32.68,1.71,0,1.86a.44.44,0,0,1-.54-.31c-.19.24-.33.51-.64.46-.56-.08-.2-.92-.54-1.29,0-.28.12-.47.43-.46.06.4-.13,1,.16,1.18a.45.45,0,0,0,.43-.25c0-.43-.27-.81,0-1.14.53.14,0,1.52.81,1.24-.1-.42-.52-.89-.16-1.29"
         id="path35723" />
      <path
         class="cls-3"
         d="M66.46,14.67c-.28,0-.22-.24-.43-.26-.52.38-.21,1.55-.81,1.85a3.4,3.4,0,0,0-.48-1.33c-.35.13-.53-.12-.7-.31a2.1,2.1,0,0,1,.38-.57,1.37,1.37,0,0,1,.91,1.24c.24-.36.28-1.59.91-1.44a.57.57,0,0,1,.22.82"
         id="path35725" />
      <path
         class="cls-3"
         d="M63,14.21c.23.42-.6,1.35,0,1.8.26,0,.17-.39.48-.36a1.42,1.42,0,0,1-.43.87c-1.09.06-.29-2,0-2.31"
         id="path35727" />
      <path
         class="cls-3"
         d="M79.07,18a3.26,3.26,0,0,1-2.15-.72c-.4.32-.6.83-1.13,1-.09.1,0,.34-.05.52a6.7,6.7,0,0,1-2.36,2.88A4.33,4.33,0,0,1,70,22.9c-1.39-.29-1.65-2-1.29-3.6-.6.49-2.41.43-2.25-.82-1.28,1.05-3.74,1.65-5.26.56a2.62,2.62,0,0,1-.59-.72c-.27.26-.27.63-.65.88A1.16,1.16,0,0,1,58,18.32c-.48,1-3.39,2.23-3.49.05-1.09.62-2.42,1.79-4,1.19a2.77,2.77,0,0,1-.69-.52c-.43-.49-.49-1.09-.86-1.18-.69-.16-1.31.82-1.56,1.34a12.61,12.61,0,0,1-.91,1.9c-1.07,1.38-2.18-.59-2.31-1.85a4.18,4.18,0,0,1,.38-2.42c.16.94-.41,3.79,1.07,3.76a1.15,1.15,0,0,0,.75-.52c.37-.55.53-1.3,1-2.06.33-.56,1-1.42,1.66-1.39s1,1.36,1.61,1.65a2.51,2.51,0,0,0,.59.16c1.72.2,2.46-.77,3.86-1.34a1.06,1.06,0,0,0,.81,1.34c1.3.23,1.91-1.11,2.74-1.45a.83.83,0,0,0,.48,1.24c1,.15,1.49-1.18,1.88-1.39.19.18,0,.42.1.62.23.68,1.3,1,2.26,1a8.43,8.43,0,0,0,3.7-1.34c.17.32-.15.44-.11.72.07.48.64.6,1.18.51.93-.14,1.16-1.37,1.77-1.54.11.23-.08.47-.1.72A.84.84,0,0,0,71,18a1.08,1.08,0,0,1,.21-1.28c1.32,1.19-1,3.74-1.88,1.9-1,1.68-.13,3.75,2.2,3a8,8,0,0,0,2.15-1.28c.73-.56,1.61-1.15,1.55-1.85-.9,0-2.09.23-2.36-.57a1.72,1.72,0,0,1,1.29-2.06c.94-.05,1.05.9,1.61,1.34,1.18-.31,1.4-2.11,2.63-2.32S80,17.2,79.07,18m-1.51-1.7a2.43,2.43,0,0,0,1.24.47.74.74,0,0,0-1.24-.47M73.49,17c-.06.4.86.39,1.07.2a.8.8,0,0,0-1.07-.2"
         id="path35729" />
      <path
         class="cls-3"
         d="M12.27,15a1.8,1.8,0,0,1,1.07.62,2,2,0,0,1-.48.87,3.9,3.9,0,0,1-1-.67c.06-.34.35-.46.38-.82"
         id="path35731" />
      <path
         class="cls-3"
         d="M29.28,15.8c-.06.38-.3.57-.43.88a3.57,3.57,0,0,1-1-.62,1.88,1.88,0,0,1,.48-.93,2.81,2.81,0,0,1,1,.67"
         id="path35733" />
      <path
         class="cls-3"
         d="M4.86,16.47a1.78,1.78,0,0,1-.42.82c-.4-.06-.54-.38-.92-.46-.17.15-.22.4-.37.57a11.53,11.53,0,0,1-1-.62,4.53,4.53,0,0,1,.48-.93c.35.13.56.39.91.52.21-.9,1-.33,1.34.1"
         id="path35735" />
      <path
         class="cls-3"
         d="M8.3,16.93c.25.44-.51,1.21-.11,1.8.34,0,.25-.34.54-.36-.06.41-.2.92-.54.93-.86,0-.25-2.05.11-2.37"
         id="path35737" />
      <path
         class="cls-3"
         d="M27.61,17.24h.16c.1.38-.51,1.2-.05,1.6.27,0,.2-.36.48-.36-.08.41-.18.94-.59.92-.77,0-.21-1.71,0-2.16"
         id="path35739" />
      <path
         class="cls-3"
         d="M78.91,18.68c-.25-.2-.26.27-.54.21-.14-1.1,1-.95,1.34-.36.15.88-.87.63-1.23,1a4.74,4.74,0,0,1,.21,3c.14-1.36-1.12-3.27.22-3.91"
         id="path35741" />
      <path
         class="cls-3"
         d="M34,18.84a.09.09,0,0,1,.11.05c0,.52-.57,1.24-.17,1.7.33.05.21-.32.49-.31,0,.29-.16.84-.49.87-.91.08-.29-1.94.06-2.31"
         id="path35743" />
      <path
         class="cls-3"
         d="M38.45,19.35a.55.55,0,0,1-.16.67c-.19,0-.13-.18-.32-.15s-.25.13-.27.31c.36.57.91-.06,1.23-.26.19.79-.68.94-1.12,1.49-1.06,1.29,1,.87,1.88.72a2.22,2.22,0,0,1-2,.77c-.91-.19-.5-1.35-.05-1.85-.93-.47,0-1.82.8-1.7"
         id="path35745" />
      <path
         class="cls-3"
         d="M41.83,19.35c.26.39-.58,1.32,0,1.8.32.07.24-.46.48-.31-.1.39-.19.95-.64.88-.76-.12-.08-2,.21-2.37"
         id="path35747" />
      <path
         class="cls-3"
         d="M56.8,19.87c.46.52,0,1.72-.8,1.23-.28.13-.51.3-.81.41-2.11-.63-2.38,1.69-4.13,1.91.2-.42.52-.42.86-.67.92-.69,1.44-2.19,2.95-2.06.19,0,.34.14.54.1.42-.07.41-.55.8-.67.14.13-.06.21-.05.36a1.58,1.58,0,0,0,.43.11c0-.24,0-.55.21-.72"
         id="path35749" />
      <path
         class="cls-3"
         d="M68.07,19.87c.14.45,0,1.17-.43,1.28-.15,0-.37-.12-.54-.1s-.49.34-.64.36-.46-.1-.7-.1c-1.69,0-1.89,1.85-3.59,2.06.26-.45.68-.46,1.07-.78.86-.7,1.22-1.84,2.57-2,.78.45,1.14-.2,1.56-.52,0,.19-.13.29,0,.41h.32c.06-.22,0-.61.38-.61"
         id="path35751" />
      <path
         class="cls-3"
         d="M21.5,20.74c-.17.16-.19-.12-.38-.1a3.2,3.2,0,0,1-2.79,2.83c.63-.58,1.6-.83,2.15-1.49a1.51,1.51,0,0,0-.32-1,.51.51,0,0,1-.54-.26,1.42,1.42,0,0,1,.32-.41c.45.08.57.49.7.87-.05-.63.89-1.64.86-.46"
         id="path35753" />
      <path
         class="cls-3"
         d="M23.91,20.54c.25.42-.52,1.21-.11,1.8.34.06.3-.45.54-.31-.07.38-.2.87-.54.87-.82,0-.24-2,.11-2.36"
         id="path35755" />
      <path
         class="cls-3"
         d="M76.17,22.59c.14-.5,1-.78.7-1.33-.25-.05-.26.12-.49.1,0-.76.85-.91,1-.36.16.73-.73,1.33-1.18,1.59"
         id="path35757" />
      <path
         class="cls-3"
         d="M17.74,20.69c.32.21.4,1,0,1.23-.37,0-.51-.22-.75-.36-.6,1.32-2.09,1.77-3.76,2.06.3-.39,1-.53,1.51-.77a5.07,5.07,0,0,0,1.93-1.18,4.4,4.4,0,0,1,.7-1Zm-.37.51c0,.17.2.19.37.21,0-.18-.24-.31-.37-.21"
         id="path35759" />
      <path
         class="cls-3"
         d="M60.72,20.84a1.73,1.73,0,0,1-1.13,1.86c.15-.5.86-.72.75-1.29-.13-.16-.35,0-.53,0,0-.42.43-.88.91-.57"
         id="path35761" />
      <path
         class="cls-3"
         d="M49.67,20.79c.47.86-.37,1.68-1,2,.17-.5.74-.63.8-1.24-.09-.27-.47,0-.54-.05,0-.44.21-.72.76-.67"
         id="path35763" />
      <path
         class="cls-3"
         d="M3.9,23.52c.21-.45.68-.65.8-1.18-.13-.27-.31-.05-.59-.05,0-.52.51-.9.92-.57a1.68,1.68,0,0,1-1.13,1.8"
         id="path35765" />
      <path
         class="cls-3"
         d="M9.53,23c0,.42-.27.57-.37.88a2.66,2.66,0,0,1-.92-.52c-.18.12-.21.38-.37.52-.53,0-.7-.39-1.07-.57.18-.27.28-.62.48-.87.39.09.59.36.91.51.2-.88,1-.37,1.34.05"
         id="path35767" />
      <path
         class="cls-4"
         d="M19.45,25.78a1.44,1.44,0,0,1,.77,0c.93.36.76,3.34.15,3.75a1.38,1.38,0,0,1-1.28-.05c-.55-.46-.55-3.15.05-3.6a1,1,0,0,1,.31-.1m.66,1.31c0-.45-.09-1.23-.56-.82-.11.78-.31,2.41.15,3,.49,0,.46-1.35.41-2.14"
         id="path35769" />
      <path
         class="cls-4"
         d="M36.44,25.78a1.44,1.44,0,0,1,.77,0c.93.36.76,3.34.15,3.75a1.38,1.38,0,0,1-1.28-.05c-.55-.46-.55-3.15.05-3.6a1.11,1.11,0,0,1,.31-.1m.67,1.31c0-.45-.1-1.23-.57-.82-.1.78-.3,2.41.16,3,.48,0,.45-1.35.41-2.14"
         id="path35771" />
      <path
         class="cls-4"
         d="M45.35,25.78a1.4,1.4,0,0,1,.76,0c.94.36.77,3.34.16,3.75A1.38,1.38,0,0,1,45,29.48c-.56-.46-.55-3.15,0-3.6a.94.94,0,0,1,.31-.1M46,27.09c0-.45-.09-1.23-.56-.82-.11.78-.31,2.41.15,3,.49,0,.45-1.35.41-2.14"
         id="path35773" />
      <path
         class="cls-4"
         d="M64.49,25.78a1.43,1.43,0,0,1,.77,0c.93.36.76,3.34.15,3.75a1.38,1.38,0,0,1-1.28-.05c-.55-.46-.55-3.15.05-3.6a.94.94,0,0,1,.31-.1m.66,1.31c0-.45-.09-1.23-.56-.82-.11.78-.31,2.41.15,3,.49,0,.46-1.35.41-2.14"
         id="path35775" />
      <path
         class="cls-4"
         d="M.92,25.78h.72c.19,1.1.41,2.17.61,3.26,0,.15.24,0,.26.15v.38H1.28v-.34c-.05-.17.22-.05.26-.14s-.07-.43-.11-.63H.87c-.19.07-.12.4-.2.58s.23,0,.25.15v.38H0v-.34c0-.15.21-.09.26-.19.19-1.11.45-2.16.66-3.26M.87,28.07h.46a5.36,5.36,0,0,0-.2-1.27c-.1.41-.19.83-.26,1.27"
         id="path35777" />
      <path
         class="cls-4"
         d="M2.66,25.78H3.94a.39.39,0,0,1-.31.54v2.82c.79.16.75-.46.82-1h.21c.23.28,0,1,.1,1.41H2.66c0-.27,0-.49.26-.48V26.32c0-.16-.24,0-.26-.15Z"
         id="path35779" />
      <path
         class="cls-4"
         d="M6.91,25.78h.72C7.82,26.88,8,28,8.24,29c0,.15.24,0,.26.15v.38H7.27v-.34c0-.17.22-.05.25-.14s-.06-.43-.1-.63H6.86c-.2.07-.12.4-.21.58s.24,0,.26.15v.38H6v-.34c0-.15.21-.09.25-.19.2-1.11.46-2.16.67-3.26m0,2.29h.46a5.35,5.35,0,0,0-.21-1.27c-.09.41-.19.83-.25,1.27"
         id="path35781" />
      <path
         class="cls-4"
         d="M8.6,25.78H9.72v.34c0,.19-.28,0-.25.2.09.74.21,1.45.31,2.18.17-.67.23-1.46.35-2.18,0-.16-.23,0-.25-.15v-.39h1.23v.34c.05.19-.29,0-.26.2.06.75.26,1.37.31,2.14a14.34,14.34,0,0,0,.36-2.1c-.11-.16-.3-.24-.21-.58h.82c.13.31-.12.4-.2.58A7.63,7.63,0,0,0,11.67,28c-.09.54-.21,1.08-.26,1.6h-.66c-.12-.71-.24-1.42-.31-2.18-.23.64-.23,1.5-.41,2.18H9.37c-.15-1.11-.36-2.15-.57-3.21.06-.18-.17-.09-.2-.19Z"
         id="path35783" />
      <path
         class="cls-4"
         d="M12.33,25.78h1c.27.79.53,1.6.82,2.38a12.38,12.38,0,0,0,0-1.75c-.08-.21-.38-.23-.26-.63h.92c.07.32-.05.47-.25.54v3.25h-.67c-.23-.89-.63-1.63-.87-2.52A14.32,14.32,0,0,0,13,29c0,.15.23,0,.26.15v.38h-.93v-.34c0-.17.25-.05.26-.19V26.41c0-.18-.18-.15-.26-.24Z"
         id="path35785" />
      <path
         class="cls-4"
         d="M16.12,25.78h2.25a6.17,6.17,0,0,1-.05,1.31h-.15c-.15-.47-.21-1-1-.87a5.41,5.41,0,0,0-.06,1.17h.26c.19,0,.07-.36.1-.54h.36v1.51h-.36c0-.18.05-.43-.05-.54h-.25A5.94,5.94,0,0,0,17.09,29c0,.17.28,0,.31.15v.38H16.12v-.34c-.05-.17.22-.05.26-.14V26.32c0-.12-.23-.05-.26-.15Z"
         id="path35787" />
      <path
         class="cls-4"
         d="M21.14,25.78h1.23c.06.32-.05.47-.26.54.19.8-.39,2.83.31,2.91.38.05.44-.45.46-.63.08-.66-.07-1.53,0-2.14-.06-.25-.37-.26-.26-.68h.92a.4.4,0,0,1-.25.54c-.19,1,.31,2.32-.16,3a1.15,1.15,0,0,1-1.43.2c-.66-.47-.13-2.29-.31-3.17-.12-.15-.35-.21-.25-.58"
         id="path35789" />
      <path
         class="cls-4"
         d="M23.7,25.78h1c.27.79.54,1.6.82,2.38a11,11,0,0,0,.05-1.75c-.08-.21-.37-.23-.26-.63h.93c.06.32-.05.47-.26.54v3.25h-.67c-.23-.89-.63-1.63-.87-2.52a16.06,16.06,0,0,0-.05,2c0,.15.24,0,.26.15v.38H23.7v-.34c0-.17.25-.05.25-.19V26.41c0-.18-.18-.15-.25-.24Z"
         id="path35791" />
      <path
         class="cls-4"
         d="M26.41,29.57a.4.4,0,0,1,.26-.53V26.36c-.13-.15-.36-.21-.26-.58.7.1,1.15-.16,1.69,0s1.07,3.27,0,3.7c-.6.25-.91-.08-1.74,0m1.07-.43c.7.1.77-2.59.26-2.87-.11-.07-.27,0-.36-.05a17.21,17.21,0,0,0,.1,2.92"
         id="path35793" />
      <path
         class="cls-4"
         d="M29.84,25.78h.72c.19,1.1.41,2.17.61,3.26,0,.15.23,0,.26.15v.38H30.2v-.34c-.05-.17.22-.05.25-.14s-.06-.43-.1-.63h-.56c-.2.07-.12.4-.21.58s.24,0,.26.15v.38h-.92v-.34c0-.15.21-.09.25-.19.2-1.11.46-2.16.67-3.26m-.05,2.29h.46A5.35,5.35,0,0,0,30,26.8c-.09.41-.19.83-.25,1.27"
         id="path35795" />
      <path
         class="cls-4"
         d="M31.53,25.78h2.35a8.22,8.22,0,0,1-.05,1.51h-.2c-.23-.29,0-1-.46-1.07a10.54,10.54,0,0,0-.06,2.87c0,.14.32,0,.31.1v.38H32v-.34c0-.2.31,0,.36-.14V26.22c-.55,0-.41.65-.52,1.07h-.2c-.23-.31,0-1-.1-1.51"
         id="path35797" />
      <path
         class="cls-4"
         d="M34.14,25.78h1.18a.48.48,0,0,1-.26.58,26.19,26.19,0,0,0,0,2.68.45.45,0,0,1,.21.53H34.14c0-.29,0-.45.2-.53V26.36c.06-.18-.17-.09-.2-.19Z"
         id="path35799" />
      <path
         class="cls-4"
         d="M38.18,25.78h1c.28.79.54,1.6.82,2.38A11,11,0,0,0,40,26.41c-.08-.21-.37-.23-.25-.63h.92c.06.32,0,.47-.26.54v3.25h-.66c-.23-.89-.63-1.63-.87-2.52a14.32,14.32,0,0,0,0,2c0,.15.23,0,.25.15v.38h-.92v-.34c0-.17.25-.05.26-.19V26.41c0-.18-.18-.15-.26-.24Z"
         id="path35801" />
      <path
         class="cls-4"
         d="M42,25.78h2.25a6.17,6.17,0,0,1,0,1.31H44c-.16-.47-.21-1-1-.87a4.88,4.88,0,0,0-.05,1.17h.26c.18,0,.07-.36.1-.54h.36v1.51H43.3c0-.18,0-.43,0-.54H43A5.34,5.34,0,0,0,42.94,29c0,.17.28,0,.31.15v.38H42v-.34c0-.17.22-.05.25-.14V26.32c0-.12-.22-.05-.25-.15Z"
         id="path35803" />
      <path
         class="cls-4"
         d="M47,25.78c1.62-.24,2.87.25,2.15,1.75-.15.07-.24.2-.47.2.52.19.43,1,.62,1.46.28,0,0-.44.25-.44s0,.72-.1.82a1.2,1.2,0,0,1-.82,0c-.36-.39.12-1.58-.61-1.61A4.49,4.49,0,0,0,48,29c0,.15.23,0,.25.15v.38H47v-.34c0-.17.22-.05.25-.14V26.32c0-.12-.22-.05-.25-.15Zm1,1.7c.77.14.68-.66.56-1.12a.83.83,0,0,0-.56-.14Z"
         id="path35805" />
      <path
         class="cls-4"
         d="M51,29.57a.4.4,0,0,1,.25-.53V26.36c-.13-.15-.36-.21-.25-.58.69.1,1.15-.16,1.69,0s1.06,3.27,0,3.7c-.6.25-.91-.08-1.74,0m1.07-.43c.7.1.76-2.59.26-2.87-.12-.07-.28,0-.36-.05a16.23,16.23,0,0,0,.1,2.92"
         id="path35807" />
      <path
         class="cls-4"
         d="M53.59,25.78h2.25a6.17,6.17,0,0,1-.05,1.31h-.21c-.21-.11,0-.57-.2-.73a1.33,1.33,0,0,0-.82-.14,5.49,5.49,0,0,0-.05,1.17c.48.13.37-.3.46-.54h.2a2.94,2.94,0,0,1,0,1.51H55c-.23-.11,0-.69-.46-.54a5.79,5.79,0,0,0-.05,1.27c.69.24,1.11-.21,1-.93h.36v1.41H53.59c-.06-.29,0-.45.2-.53V26.36c.06-.18-.17-.09-.2-.19Z"
         id="path35809" />
      <path
         class="cls-4"
         d="M56.15,25.78h1.22v.34c0,.18-.24.06-.25.2.11.73.24,1.45.36,2.18.21-.65.29-1.43.46-2.14-.1-.16-.3-.24-.21-.58h.87v.34c0,.15-.21.1-.25.2-.18,1.12-.45,2.17-.67,3.25H57c-.14-1.11-.39-2.12-.56-3.21,0-.13-.19-.11-.25-.19Z"
         id="path35811" />
      <path
         class="cls-4"
         d="M58.81,25.78h2.25A6.17,6.17,0,0,1,61,27.09H60.8c-.21-.11,0-.57-.2-.73a1.33,1.33,0,0,0-.82-.14,5.49,5.49,0,0,0-.05,1.17c.48.13.37-.3.46-.54h.2a2.94,2.94,0,0,1,0,1.51h-.2c-.23-.11,0-.69-.46-.54a5.79,5.79,0,0,0-.05,1.27c.7.24,1.11-.21,1-.93h.36v1.41H58.81c-.06-.29,0-.45.2-.53V26.36c.06-.18-.17-.09-.2-.19Z"
         id="path35813" />
      <path
         class="cls-4"
         d="M61.32,25.78h1.27a.38.38,0,0,1-.3.54v2.82c.78.16.74-.46.82-1h.2c.24.28,0,1,.1,1.41H61.32c0-.27,0-.49.25-.48V26.32c0-.16-.23,0-.25-.15Z"
         id="path35815" />
      <path
         class="cls-4"
         d="M66.18,25.78c.81.11,1.54-.23,2,.2a1.17,1.17,0,0,1-1.07,2,5,5,0,0,0,0,1.12c0,.14.32,0,.31.1v.38H66.18c0-.27,0-.49.25-.48V26.32c0-.16-.23,0-.25-.15Zm1,1.75a.86.86,0,0,0,.51-.1,1.21,1.21,0,0,0,0-1.11.86.86,0,0,0-.51-.1Z"
         id="path35817" />
      <path
         class="cls-4"
         d="M68.69,25.78h1.22c.07.75.25,1.38.31,2.14a10.32,10.32,0,0,0,.51-2.14h1.18v.34c0,.18-.24.06-.26.2V29c0,.15.24,0,.26.15v.38H70.68v-.34c0-.17.25-.05.26-.19V27c-.25.8-.39,1.7-.57,2.57h-.46c-.17-.95-.38-1.87-.51-2.87A20,20,0,0,0,69.35,29c0,.15.24,0,.26.15v.38h-.92v-.34c0-.17.24-.05.25-.19V26.41c0-.18-.18-.15-.25-.24Z"
         id="path35819" />
      <path
         class="cls-4"
         d="M72.11,25.78h2.26a7.85,7.85,0,0,1-.05,1.31h-.21c-.21-.11,0-.57-.2-.73a1.35,1.35,0,0,0-.82-.14,4.9,4.9,0,0,0,0,1.17c.48.13.36-.3.46-.54h.2a2.94,2.94,0,0,1,0,1.51h-.2c-.23-.11,0-.69-.46-.54a5.79,5.79,0,0,0,0,1.27c.69.24,1.1-.21,1-.93h.36v1.41H72.11c0-.29,0-.45.21-.53V26.36c.05-.18-.17-.09-.21-.19Z"
         id="path35821" />
      <path
         class="cls-4"
         d="M74.67,25.78h1c.27.79.53,1.6.81,2.38a12.31,12.31,0,0,0,.06-1.75c-.09-.21-.38-.23-.26-.63h.92c.07.32-.05.47-.25.54v3.25h-.67c-.23-.89-.63-1.63-.87-2.52a14.32,14.32,0,0,0,0,2c0,.15.23,0,.25.15v.38h-.92v-.34c0-.17.25-.05.26-.19V26.41c0-.18-.18-.15-.26-.24Z"
         id="path35823" />
      <path
         class="cls-4"
         d="M77.39,25.78h2.35a8.22,8.22,0,0,1,0,1.51h-.21c-.22-.29,0-1-.46-1.07a11,11,0,0,0,0,2.87c0,.14.32,0,.31.1v.38H77.85v-.34c0-.2.31,0,.35-.14V26.22c-.54,0-.4.65-.51,1.07h-.2c-.24-.31,0-1-.1-1.51"
         id="path35825" />
      <line
         class="cls-5"
         x1="4.96"
         y1="28.12"
         x2="5.73"
         y2="28.12"
         id="line35827" />
    </g>
  </g>
</svg>
